<?xml version="1.0" standalone="no"?>
<!DOCTYPE svg PUBLIC "-//W3C//DTD SVG 20010904//EN"
 "http://www.w3.org/TR/2001/REC-SVG-20010904/DTD/svg10.dtd">
<svg version="1.0" xmlns="http://www.w3.org/2000/svg"
 width="671.000000pt" height="405.000000pt" viewBox="0 0 671.000000 405.000000"
 preserveAspectRatio="xMidYMid meet">

<g transform="translate(0.000000,405.000000) scale(0.100000,-0.100000)"
fill="#000000" stroke="none">
<path d="M4398 3312 c-262 -224 -477 -410 -477 -413 -1 -4 31 -32 69 -63 l70
-57 305 260 c167 144 306 261 309 261 3 0 6 -403 6 -895 l0 -895 100 0 100 0
0 1105 c0 608 -1 1105 -2 1104 -2 0 -218 -183 -480 -407z"/>
<path d="M1600 2601 l0 -1091 105 0 105 0 2 885 3 884 695 -575 c382 -317 700
-578 706 -581 8 -3 356 267 492 382 4 3 -134 115 -142 115 -4 0 -82 -60 -174
-134 -96 -78 -171 -132 -177 -127 -5 4 -365 302 -800 661 -434 359 -796 657
-802 663 -10 7 -13 -210 -13 -1082z"/>
<path d="M2991 3112 l-231 -187 57 -52 c32 -29 66 -55 75 -58 12 -4 62 30 165
115 82 67 153 124 159 127 7 2 165 -123 353 -278 l341 -283 -2 -411 -3 -410
-685 0 -685 0 -3 401 -2 401 -83 74 c-45 40 -90 79 -99 87 -17 14 -18 -13 -18
-556 l0 -572 890 0 890 0 0 529 0 528 -427 354 c-235 195 -434 360 -444 366
-15 11 -47 -12 -248 -175z"/>
<path d="M3307 1066 c-64 -127 -117 -235 -117 -239 0 -5 19 -7 42 -5 40 3 44
6 65 51 l23 47 105 0 105 0 25 -50 c24 -47 27 -50 65 -50 26 0 40 5 40 13 0 6
-53 114 -118 238 l-117 227 -118 -232z m156 -8 c15 -35 27 -66 27 -70 0 -5
-29 -8 -65 -8 -38 0 -65 4 -65 10 0 16 59 130 68 130 4 0 20 -28 35 -62z"/>
<path d="M940 1055 l0 -235 40 0 40 0 0 120 c0 66 4 120 9 120 4 0 45 -45 90
-100 45 -55 84 -100 86 -100 2 0 41 45 86 100 45 55 86 100 90 100 5 0 9 -54
9 -120 l0 -120 40 0 40 0 0 235 c0 129 -2 235 -4 235 -3 0 -61 -70 -131 -155
-70 -85 -128 -155 -130 -155 -1 0 -60 70 -130 155 -69 85 -128 155 -131 155
-2 0 -4 -106 -4 -235z"/>
<path d="M1900 1050 l0 -230 40 0 39 0 3 230 3 230 -42 0 -43 0 0 -230z"/>
<path d="M2412 1053 l3 -228 42 -3 42 -3 3 106 3 105 112 -105 113 -105 52 0
52 0 -122 116 c-67 64 -122 120 -122 126 0 5 43 56 95 111 l95 102 -47 3 -47
3 -90 -90 c-49 -50 -90 -91 -92 -91 -2 0 -4 41 -4 90 l0 90 -45 0 -45 0 2
-227z"/>
<path d="M4060 1050 l0 -230 168 2 167 3 3 27 3 27 -128 3 -128 3 -3 73 -3 72
106 0 105 0 0 30 0 29 -102 3 -103 3 -3 62 -3 62 128 3 128 3 3 28 3 27 -170
0 -171 0 0 -230z"/>
<path d="M4817 1053 l2 -228 156 -3 155 -3 0 31 0 30 -115 0 -115 0 0 200 0
200 -42 0 -43 0 2 -227z"/>
<path d="M5510 1049 l0 -230 40 3 41 3 2 228 2 227 -42 0 -43 0 0 -231z"/>
<path d="M940 585 c0 -37 4 -65 10 -65 6 0 10 28 10 65 0 37 -4 65 -10 65 -6
0 -10 -28 -10 -65z"/>
<path d="M1070 586 c0 -37 4 -66 10 -66 6 0 10 17 10 37 l0 37 31 -30 31 -29
24 30 c24 30 26 29 28 -12 1 -13 5 -22 10 -20 6 1 10 28 11 61 l0 58 -38 -43
-38 -44 -40 44 -39 44 0 -67z"/>
<path d="M1340 586 c0 -37 4 -66 10 -66 6 0 10 17 10 38 l1 37 24 -27 c13 -16
27 -28 32 -28 4 0 17 12 30 28 l22 27 1 -32 c0 -17 5 -35 10 -38 6 -4 10 17
10 57 l-1 63 -33 -37 c-18 -21 -37 -38 -42 -37 -5 0 -24 18 -41 41 l-33 40 0
-66z"/>
<path d="M1626 629 c-30 -23 -33 -45 -11 -76 46 -66 182 -13 145 56 -23 45
-90 55 -134 20z m88 -1 c55 -25 34 -88 -29 -88 -61 0 -85 68 -32 90 30 12 32
12 61 -2z"/>
<path d="M1872 588 c3 -60 4 -63 30 -66 49 -6 88 34 61 62 -4 4 -7 19 -8 34 0
25 -4 27 -43 30 l-43 3 3 -63z m68 37 c0 -19 -36 -39 -45 -25 -11 18 3 40 25
40 11 0 20 -7 20 -15z m15 -64 c0 -17 -37 -32 -55 -21 -7 4 -10 15 -7 25 8 20
62 17 62 -4z"/>
<path d="M2080 585 c0 -37 4 -65 10 -65 6 0 10 28 10 65 0 37 -4 65 -10 65 -6
0 -10 -28 -10 -65z"/>
<path d="M2210 585 l0 -65 52 0 c55 0 60 13 5 14 -32 1 -32 1 -35 59 -4 78
-22 72 -22 -8z"/>
<path d="M2400 585 c0 -37 4 -65 10 -65 6 0 10 28 10 65 0 37 -4 65 -10 65 -6
0 -10 -28 -10 -65z"/>
<path d="M2536 588 l2 -63 46 -3 c25 -2 46 1 46 6 0 5 -13 7 -28 4 -17 -2 -33
2 -41 12 -18 21 -5 36 30 36 40 0 37 18 -3 22 -48 4 -43 31 7 39 l40 6 -50 2
-50 1 1 -62z"/>
<path d="M2740 586 c0 -37 4 -66 10 -66 6 0 10 18 10 40 0 22 3 40 7 40 4 0
28 -18 55 -41 l48 -40 0 65 c0 37 -4 66 -10 66 -5 0 -10 -18 -10 -40 0 -45 -8
-49 -36 -19 -10 12 -31 30 -46 41 l-28 19 0 -65z"/>
<path d="M3160 585 c0 -37 4 -65 10 -65 6 0 10 14 10 30 0 27 3 30 30 30 17 0
30 5 30 10 0 6 -13 10 -30 10 -23 0 -30 5 -30 19 0 16 8 21 43 24 40 3 40 4
-10 5 l-53 2 0 -65z"/>
<path d="M3370 585 c0 -37 4 -65 10 -65 6 0 10 28 10 65 0 37 -4 65 -10 65 -6
0 -10 -28 -10 -65z"/>
<path d="M3500 586 c0 -37 4 -66 10 -66 6 0 10 18 10 40 0 22 3 40 6 40 3 0
28 -18 55 -41 l49 -41 0 66 c0 37 -4 66 -10 66 -5 0 -10 -18 -10 -40 0 -37
-11 -52 -25 -31 -3 5 -23 24 -45 41 l-40 32 0 -66z"/>
<path d="M3762 585 c-17 -36 -27 -65 -22 -65 6 0 13 7 16 15 4 10 20 15 44 15
24 0 40 -5 44 -15 3 -8 10 -15 16 -15 5 0 -5 29 -22 65 -18 36 -35 65 -38 65
-3 0 -20 -29 -38 -65z m54 4 c10 -17 -13 -36 -27 -22 -12 12 -4 33 11 33 5 0
12 -5 16 -11z"/>
<path d="M3970 585 c0 -37 4 -65 10 -65 6 0 10 18 10 40 0 22 5 40 10 40 6 0
31 -19 55 -41 l45 -42 0 67 c0 37 -4 66 -10 66 -5 0 -10 -18 -10 -40 0 -22 -4
-40 -8 -40 -4 0 -26 18 -47 40 -21 22 -43 40 -47 40 -4 0 -8 -29 -8 -65z"/>
<path d="M4258 643 c17 -2 32 -7 32 -10 0 -3 -16 -27 -35 -53 -19 -26 -35 -50
-35 -54 0 -3 27 -6 61 -6 37 0 58 4 54 10 -3 6 -24 10 -46 10 l-41 0 33 43
c18 23 37 48 42 55 7 9 -3 12 -44 10 -36 -1 -43 -3 -21 -5z"/>
<path d="M4450 585 c0 -37 4 -65 10 -65 6 0 10 28 10 65 0 37 -4 65 -10 65 -6
0 -10 -28 -10 -65z"/>
<path d="M4580 585 l0 -65 52 0 c55 0 60 13 5 14 -25 1 -33 6 -35 24 -3 19 1
22 27 22 17 0 31 5 31 10 0 6 -13 10 -30 10 -23 0 -30 5 -30 19 0 16 8 21 43
24 40 3 40 4 -10 5 l-53 2 0 -65z"/>
<path d="M4790 584 c0 -41 4 -63 10 -59 6 3 10 15 10 26 0 26 12 24 40 -6 27
-29 52 -35 26 -6 -16 17 -16 20 1 49 23 40 6 62 -48 62 l-39 0 0 -66z m70 46
c20 -13 2 -44 -29 -48 -18 -3 -21 2 -21 27 0 33 19 41 50 21z"/>
<path d="M4992 598 c3 -45 7 -55 30 -67 20 -12 34 -13 55 -5 26 9 28 14 31 67
2 33 -1 57 -7 57 -5 0 -11 -24 -13 -52 -3 -50 -5 -53 -32 -56 -35 -4 -46 10
-46 66 0 23 -5 42 -11 42 -6 0 -9 -20 -7 -52z"/>
<path d="M5226 590 c1 -33 6 -60 10 -60 5 0 7 16 5 35 -3 43 15 46 50 9 13
-14 32 -30 42 -35 15 -9 17 -4 17 51 0 67 -17 82 -22 19 l-3 -41 -47 41 c-25
23 -48 41 -50 41 -1 0 -2 -27 -2 -60z"/>
<path d="M5482 630 c-53 -50 7 -125 84 -106 19 5 24 13 24 36 0 25 -4 30 -25
30 -14 0 -25 -4 -25 -10 0 -5 7 -10 15 -10 8 0 15 -7 15 -15 0 -22 -53 -19
-73 3 -10 10 -17 26 -17 35 0 25 45 50 75 43 14 -4 25 -2 25 4 0 19 -75 11
-98 -10z"/>
<path d="M2998 583 c12 -2 30 -2 40 0 9 3 -1 5 -23 4 -22 0 -30 -2 -17 -4z"/>
</g>
</svg>
