<?xml version="1.0" standalone="no"?>
<!DOCTYPE svg PUBLIC "-//W3C//DTD SVG 20010904//EN"
 "http://www.w3.org/TR/2001/REC-SVG-20010904/DTD/svg10.dtd">
<svg version="1.0" xmlns="http://www.w3.org/2000/svg"
 width="600.000000pt" height="200.000000pt" viewBox="0 0 600.000000 200.000000"
 preserveAspectRatio="xMidYMid meet">

<g transform="translate(0.000000,200.000000) scale(0.100000,-0.100000)"
fill="#000000" stroke="none">
<path d="M420 1485 l0 -225 185 0 185 0 0 65 0 65 -125 0 -125 0 0 100 0 100
125 0 125 0 0 60 0 60 -185 0 -185 0 0 -225z"/>
<path d="M2805 1338 c-82 -29 -134 -103 -135 -191 0 -95 55 -150 199 -198 131
-44 171 -89 121 -139 -40 -40 -140 -15 -140 35 0 12 -17 15 -90 15 -101 0
-105 -5 -76 -73 49 -115 244 -169 376 -105 87 43 126 110 118 203 -7 78 -52
124 -163 165 -168 64 -183 75 -163 132 18 51 121 45 134 -8 6 -23 10 -24 96
-24 l91 0 -6 36 c-10 58 -49 108 -108 138 -45 22 -65 26 -138 25 -48 0 -99 -5
-116 -11z"/>
<path d="M4858 1327 c-143 -61 -214 -180 -206 -346 4 -86 34 -163 86 -222 101
-115 336 -133 464 -36 41 31 108 127 108 154 0 10 -22 13 -86 13 l-87 0 -44
-41 c-44 -41 -46 -41 -109 -37 -43 3 -73 10 -91 24 -72 52 -96 187 -50 275 55
103 201 120 268 30 22 -31 24 -31 111 -31 100 0 102 3 68 70 -28 54 -81 105
-143 136 -42 22 -70 28 -142 31 -78 3 -98 1 -147 -20z"/>
<path d="M3240 1334 c0 -3 52 -105 115 -227 l115 -222 0 -112 0 -113 85 0 85
0 0 123 c0 68 4 127 8 133 5 5 57 102 116 217 l106 207 -93 0 -94 0 -64 -141
-64 -141 -62 132 c-35 73 -63 136 -63 141 0 5 -43 9 -95 9 -52 0 -95 -3 -95
-6z"/>
<path d="M3940 1000 l0 -340 85 0 85 0 2 206 3 207 135 -207 135 -206 83 0 82
0 0 340 0 340 -80 0 -80 0 -2 -207 -3 -208 -137 208 -137 207 -86 0 -85 0 0
-340z"/>
<path d="M5420 1104 c0 -266 5 -294 62 -358 56 -64 115 -89 213 -90 99 0 166
27 224 89 63 68 71 111 71 372 l0 223 -85 0 -85 0 0 -231 0 -231 -34 -34 c-29
-29 -41 -34 -83 -34 -29 0 -58 7 -72 16 -45 32 -51 67 -51 299 l0 215 -80 0
-80 0 0 -236z"/>
<path d="M420 510 l0 -221 428 3 427 3 55 27 c30 15 73 44 95 65 l40 38 -95 5
c-61 3 -108 1 -130 -7 -24 -8 -135 -12 -367 -13 l-333 0 0 100 0 100 125 0
125 0 0 60 0 60 -185 0 -185 0 0 -220z"/>
</g>
</svg>
